M48
; DRILL file {KiCad (7.0.0)} date Mon Apr 24 11:20:13 2023
; FORMAT={-:-/ absolute / metric / decimal}
; #@! TF.CreationDate,2023-04-24T11:20:13+02:00
; #@! TF.GenerationSoftware,Kicad,Pcbnew,(7.0.0)
; #@! TF.FileFunction,Plated,1,2,PTH
FMAT,2
METRIC
; #@! TA.AperFunction,Plated,PTH,ViaDrill
T1C0.300
; #@! TA.AperFunction,Plated,PTH,ViaDrill
T2C0.400
; #@! TA.AperFunction,Plated,PTH,ComponentDrill
T3C0.500
; #@! TA.AperFunction,Plated,PTH,ComponentDrill
T4C0.950
; #@! TA.AperFunction,Plated,PTH,ComponentDrill
T5C1.000
; #@! TA.AperFunction,Plated,PTH,ComponentDrill
T6C1.100
; #@! TA.AperFunction,Plated,PTH,ComponentDrill
T7C1.190
; #@! TA.AperFunction,Plated,PTH,ComponentDrill
T8C3.200
%
G90
G05
T1
X133.12Y-39.282
X133.12Y-42.273
X133.12Y-45.264
X133.12Y-48.255
X133.12Y-51.245
X133.12Y-54.236
X133.12Y-57.227
X133.12Y-60.218
X133.12Y-63.209
X133.12Y-66.2
X133.12Y-69.191
X133.12Y-72.182
X133.12Y-75.173
X133.12Y-78.164
X133.12Y-81.155
X133.12Y-84.145
X133.12Y-87.136
X133.12Y-90.127
X133.12Y-93.118
X133.12Y-96.109
X133.12Y-99.1
X133.12Y-102.091
X133.12Y-105.082
X133.12Y-108.073
X133.12Y-111.064
X133.12Y-114.055
X133.12Y-117.045
X133.12Y-120.036
X133.12Y-123.027
X133.12Y-126.018
X139.102Y-33.3
X139.102Y-132.0
X139.65Y-41.395
X142.093Y-33.3
X142.093Y-132.0
X144.73Y-92.195
X144.73Y-107.435
X144.73Y-117.595
X145.084Y-33.3
X145.084Y-132.0
X148.06Y-129.75
X148.075Y-33.3
X148.075Y-132.0
X151.065Y-33.3
X151.065Y-132.0
X152.4Y-63.5
X152.4Y-73.66
X152.4Y-88.9
X152.4Y-99.06
X154.056Y-33.3
X154.056Y-132.0
X154.94Y-116.84
X157.047Y-33.3
X157.047Y-132.0
X158.72Y-121.5
X160.02Y-58.42
X160.02Y-68.58
X160.02Y-78.74
X160.038Y-33.3
X160.038Y-132.0
X160.51Y-89.15
X160.76Y-128.41
X162.56Y-40.64
X163.029Y-33.3
X163.029Y-132.0
X165.1Y-53.34
X166.02Y-33.3
X166.02Y-132.0
X167.95Y-65.03
X169.011Y-33.3
X169.011Y-132.0
X170.18Y-99.06
X171.57Y-108.08
X172.002Y-33.3
X172.002Y-132.0
X174.37Y-56.98
X174.993Y-33.3
X174.993Y-132.0
X175.08Y-119.76
X177.984Y-33.3
X177.984Y-132.0
X180.975Y-33.3
X180.975Y-132.0
X181.95Y-117.08
X182.88Y-60.96
X182.88Y-78.74
X182.88Y-99.06
X183.43Y-107.89
X183.965Y-33.3
X183.965Y-132.0
X185.42Y-68.58
X185.42Y-88.9
X185.57Y-129.46
X186.956Y-33.3
X186.956Y-132.0
X189.04Y-120.68
X189.947Y-33.3
X189.947Y-132.0
X190.5Y-40.64
X190.5Y-60.96
X190.5Y-78.74
X190.5Y-99.06
X192.938Y-33.3
X192.938Y-132.0
X193.04Y-68.58
X193.04Y-88.9
X193.34Y-108.23
X195.929Y-33.3
X195.929Y-132.0
X198.12Y-60.96
X198.12Y-78.74
X198.12Y-99.06
X198.12Y-114.3
X198.92Y-33.3
X198.92Y-132.0
X199.36Y-122.95
X199.43Y-126.61
X200.35Y-119.64
X200.65Y-130.54
X201.911Y-33.3
X201.911Y-132.0
X204.902Y-33.3
X204.902Y-132.0
X207.893Y-33.3
X207.893Y-132.0
X207.99Y-116.25
X208.28Y-55.88
X210.82Y-78.74
X210.82Y-91.44
X210.82Y-106.68
X210.884Y-33.3
X210.884Y-132.0
X212.09Y-62.23
X212.09Y-64.77
X212.09Y-67.31
X212.09Y-69.85
X213.875Y-33.3
X213.875Y-132.0
X214.32Y-65.12
X214.83Y-120.2
X215.04Y-125.24
X215.9Y-50.8
X216.06Y-130.52
X216.865Y-33.3
X216.865Y-132.0
X218.91Y-128.06
X219.856Y-33.3
X219.856Y-132.0
X220.98Y-129.54
X222.847Y-33.3
X222.847Y-132.0
X225.838Y-33.3
X225.838Y-132.0
X226.06Y-63.5
X226.06Y-88.9
X226.06Y-99.06
X226.06Y-116.84
X231.82Y-39.282
X231.82Y-42.273
X231.82Y-45.264
X231.82Y-48.255
X231.82Y-51.245
X231.82Y-54.236
X231.82Y-57.227
X231.82Y-60.218
X231.82Y-63.209
X231.82Y-66.2
X231.82Y-69.191
X231.82Y-72.182
X231.82Y-75.173
X231.82Y-78.164
X231.82Y-81.155
X231.82Y-84.145
X231.82Y-87.136
X231.82Y-90.127
X231.82Y-93.118
X231.82Y-96.109
X231.82Y-99.1
X231.82Y-102.091
X231.82Y-105.082
X231.82Y-108.073
X231.82Y-111.064
X231.82Y-114.055
X231.82Y-117.045
X231.82Y-120.036
X231.82Y-123.027
X231.82Y-126.018
T2
X137.19Y-69.3
X138.86Y-82.44
T3
X133.55Y-36.127
X133.55Y-129.17
X134.253Y-34.43
X134.253Y-37.824
X134.253Y-127.473
X134.253Y-130.867
X135.95Y-33.727
X135.95Y-38.527
X135.95Y-126.77
X135.95Y-131.57
X137.647Y-34.43
X137.647Y-37.824
X137.647Y-127.473
X137.647Y-130.867
X138.35Y-36.127
X138.35Y-129.17
X226.59Y-36.13
X226.59Y-129.17
X227.293Y-34.433
X227.293Y-37.827
X227.293Y-127.473
X227.293Y-130.867
X228.99Y-33.73
X228.99Y-38.53
X228.99Y-126.77
X228.99Y-131.57
X230.687Y-34.433
X230.687Y-37.827
X230.687Y-127.473
X230.687Y-130.867
X231.39Y-36.13
X231.39Y-129.17
T4
X138.62Y-73.355
X138.62Y-75.855
X138.62Y-78.355
X138.62Y-86.665
X138.62Y-89.165
X138.62Y-91.665
X228.46Y-72.24
X228.46Y-74.74
X228.46Y-77.24
X228.46Y-79.74
T5
X146.82Y-70.59
X146.82Y-73.13
X146.82Y-75.67
X146.82Y-78.21
X146.82Y-80.75
X146.82Y-83.29
X167.54Y-48.79
X169.68Y-70.59
X169.68Y-73.13
X169.68Y-75.67
X169.68Y-78.21
X169.68Y-80.75
X169.68Y-83.29
X169.68Y-128.595
X170.08Y-48.79
X172.18Y-128.595
X172.62Y-48.79
X174.14Y-83.33
X174.14Y-85.87
X174.14Y-88.41
X174.14Y-90.95
X175.16Y-48.79
X177.7Y-48.79
X177.8Y-60.47
X177.8Y-63.01
X177.8Y-65.55
X177.8Y-68.09
X177.8Y-70.63
X177.8Y-73.17
X177.8Y-75.71
X177.8Y-78.25
X177.8Y-80.79
X177.8Y-83.33
X177.8Y-85.87
X177.8Y-88.41
X177.8Y-90.95
X177.8Y-93.49
X177.8Y-96.03
X177.8Y-98.57
X177.8Y-101.11
X177.8Y-103.65
X177.8Y-106.19
X177.8Y-108.73
X177.8Y-111.27
X177.8Y-113.81
X180.24Y-48.79
X182.78Y-48.79
X203.15Y-60.43
X203.15Y-62.97
X203.15Y-65.51
X203.15Y-68.05
X203.15Y-70.59
X203.15Y-73.13
X203.15Y-75.67
X203.15Y-78.21
X203.15Y-80.75
X203.15Y-83.29
X203.15Y-85.83
X203.15Y-88.37
X203.15Y-90.91
X203.15Y-93.45
X203.15Y-95.99
X203.15Y-98.53
X203.15Y-101.07
X203.15Y-103.61
X203.15Y-106.15
X203.15Y-108.69
X203.15Y-111.23
X203.15Y-113.77
X206.62Y-128.625
X208.3Y-67.09
X208.3Y-69.63
X208.3Y-72.17
X208.3Y-74.71
X208.3Y-77.25
X208.3Y-79.79
X208.3Y-82.33
X208.3Y-84.87
X209.12Y-128.625
X219.39Y-92.2
X219.39Y-94.7
X219.39Y-103.14
X219.39Y-105.64
X221.0Y-67.09
X221.0Y-69.63
X221.0Y-72.17
X221.0Y-74.71
X221.0Y-77.25
X221.0Y-79.79
X221.0Y-82.33
X221.0Y-84.87
T6
X160.69Y-111.3
X163.23Y-111.3
X165.77Y-111.3
X202.7Y-122.93
X205.78Y-37.24
X208.32Y-37.24
X212.86Y-122.93
X218.155Y-115.77
X218.155Y-118.31
X218.155Y-120.85
T7
X139.19Y-45.035
X139.19Y-47.575
X139.19Y-50.115
X139.19Y-52.655
X139.19Y-58.605
X139.19Y-61.145
X139.19Y-63.685
X139.19Y-66.225
X139.19Y-98.795
X139.19Y-101.335
X139.19Y-103.875
X139.19Y-106.415
X139.19Y-112.365
X139.19Y-114.905
X139.19Y-117.445
X139.19Y-119.985
T8
X135.95Y-36.127
X135.95Y-129.17
X228.99Y-36.13
X228.99Y-129.17
T0
M30
