%TF.GenerationSoftware,KiCad,Pcbnew,(7.0.0)*%
%TF.CreationDate,2023-04-24T11:20:32+02:00*%
%TF.ProjectId,Weatherstation_ESP32S3_Backplane,57656174-6865-4727-9374-6174696f6e5f,rev?*%
%TF.SameCoordinates,Original*%
%TF.FileFunction,Paste,Top*%
%TF.FilePolarity,Positive*%
%FSLAX46Y46*%
G04 Gerber Fmt 4.6, Leading zero omitted, Abs format (unit mm)*
G04 Created by KiCad (PCBNEW (7.0.0)) date 2023-04-24 11:20:32*
%MOMM*%
%LPD*%
G01*
G04 APERTURE LIST*
G04 Aperture macros list*
%AMRoundRect*
0 Rectangle with rounded corners*
0 $1 Rounding radius*
0 $2 $3 $4 $5 $6 $7 $8 $9 X,Y pos of 4 corners*
0 Add a 4 corners polygon primitive as box body*
4,1,4,$2,$3,$4,$5,$6,$7,$8,$9,$2,$3,0*
0 Add four circle primitives for the rounded corners*
1,1,$1+$1,$2,$3*
1,1,$1+$1,$4,$5*
1,1,$1+$1,$6,$7*
1,1,$1+$1,$8,$9*
0 Add four rect primitives between the rounded corners*
20,1,$1+$1,$2,$3,$4,$5,0*
20,1,$1+$1,$4,$5,$6,$7,0*
20,1,$1+$1,$6,$7,$8,$9,0*
20,1,$1+$1,$8,$9,$2,$3,0*%
G04 Aperture macros list end*
%ADD10RoundRect,0.250000X0.262500X0.450000X-0.262500X0.450000X-0.262500X-0.450000X0.262500X-0.450000X0*%
%ADD11RoundRect,0.243750X-0.456250X0.243750X-0.456250X-0.243750X0.456250X-0.243750X0.456250X0.243750X0*%
%ADD12RoundRect,0.250000X-0.450000X0.262500X-0.450000X-0.262500X0.450000X-0.262500X0.450000X0.262500X0*%
%ADD13RoundRect,0.140000X0.140000X0.170000X-0.140000X0.170000X-0.140000X-0.170000X0.140000X-0.170000X0*%
%ADD14RoundRect,0.250000X0.650000X-0.325000X0.650000X0.325000X-0.650000X0.325000X-0.650000X-0.325000X0*%
%ADD15RoundRect,0.150000X0.150000X-0.725000X0.150000X0.725000X-0.150000X0.725000X-0.150000X-0.725000X0*%
%ADD16RoundRect,0.140000X-0.170000X0.140000X-0.170000X-0.140000X0.170000X-0.140000X0.170000X0.140000X0*%
%ADD17RoundRect,0.250000X0.450000X-0.262500X0.450000X0.262500X-0.450000X0.262500X-0.450000X-0.262500X0*%
%ADD18RoundRect,0.250000X0.250000X0.475000X-0.250000X0.475000X-0.250000X-0.475000X0.250000X-0.475000X0*%
%ADD19RoundRect,0.243750X0.456250X-0.243750X0.456250X0.243750X-0.456250X0.243750X-0.456250X-0.243750X0*%
%ADD20RoundRect,0.140000X-0.140000X-0.170000X0.140000X-0.170000X0.140000X0.170000X-0.140000X0.170000X0*%
G04 APERTURE END LIST*
D10*
%TO.C,R5*%
X173592500Y-66730000D03*
X171767500Y-66730000D03*
%TD*%
D11*
%TO.C,D3*%
X171770000Y-62852500D03*
X171770000Y-64727500D03*
%TD*%
D12*
%TO.C,R6*%
X214310000Y-116135000D03*
X214310000Y-117960000D03*
%TD*%
D13*
%TO.C,C3*%
X165490000Y-114470000D03*
X164530000Y-114470000D03*
%TD*%
D14*
%TO.C,C2*%
X144060000Y-47510000D03*
X144060000Y-44560000D03*
%TD*%
D15*
%TO.C,U2*%
X169025000Y-119765000D03*
X170295000Y-119765000D03*
X171565000Y-119765000D03*
X172835000Y-119765000D03*
X172835000Y-114615000D03*
X171565000Y-114615000D03*
X170295000Y-114615000D03*
X169025000Y-114615000D03*
%TD*%
D16*
%TO.C,C6*%
X174220000Y-118760000D03*
X174220000Y-119720000D03*
%TD*%
D14*
%TO.C,C7*%
X144720000Y-114830000D03*
X144720000Y-111880000D03*
%TD*%
D17*
%TO.C,R3*%
X209370000Y-98262500D03*
X209370000Y-96437500D03*
%TD*%
D14*
%TO.C,C4*%
X144040000Y-61070000D03*
X144040000Y-58120000D03*
%TD*%
D18*
%TO.C,C8*%
X208860000Y-120010000D03*
X206960000Y-120010000D03*
%TD*%
D12*
%TO.C,R4*%
X209440000Y-110307500D03*
X209440000Y-112132500D03*
%TD*%
D19*
%TO.C,D1*%
X205840000Y-50317500D03*
X205840000Y-48442500D03*
%TD*%
D12*
%TO.C,R2*%
X209370000Y-101337500D03*
X209370000Y-103162500D03*
%TD*%
D20*
%TO.C,C1*%
X134940000Y-95830000D03*
X135900000Y-95830000D03*
%TD*%
D12*
%TO.C,R1*%
X205850000Y-44567500D03*
X205850000Y-46392500D03*
%TD*%
D14*
%TO.C,C5*%
X144670000Y-101240000D03*
X144670000Y-98290000D03*
%TD*%
M02*
